<?xml version="1.0" encoding="utf-8"?>
<!-- Generator: Adobe Illustrator 17.0.0, SVG Export Plug-In . SVG Version: 6.00 Build 0)  -->
<!DOCTYPE svg PUBLIC "-//W3C//DTD SVG 1.1//EN" "http://www.w3.org/Graphics/SVG/1.1/DTD/svg11.dtd">
<svg version="1.1" id="Camada_1" xmlns="http://www.w3.org/2000/svg" xmlns:xlink="http://www.w3.org/1999/xlink" x="0px" y="0px"
	 width="175.685px" height="69.175px" viewBox="0 0 175.685 69.175" enable-background="new 0 0 175.685 69.175"
	 xml:space="preserve">
<g>
	<defs>
		<rect id="SVGID_1_" y="0" width="175.685" height="69.175"/>
	</defs>
	<clipPath id="SVGID_2_">
		<use xlink:href="#SVGID_1_"  overflow="visible"/>
	</clipPath>
	<path clip-path="url(#SVGID_2_)" fill-rule="evenodd" clip-rule="evenodd" fill="#5BC4BE" d="M28.392,14.169L22.673,31.58
		l12.84-0.006L19.436,69.175l33.252-44.646l-12.826-0.017l5.193-12.965c0.011-0.039,0.022-0.079,0.036-0.121
		c0.603-1.8,0.994-5.742-1.653-8.528c-2.648-2.785-5.821-2.801-7.74-2.897H33.37H12.539c-3.456,0-6.591,1.409-8.861,3.678
		c-2.269,2.269-3.679,5.406-3.679,8.862v31.098c0,3.456,1.41,6.593,3.679,8.862c2.27,2.27,5.405,3.678,8.861,3.678h8.097
		l5.636-14.168H14.168V14.169H28.392z"/>
	<path clip-path="url(#SVGID_2_)" fill="#004B88" d="M83.35,29.528v-0.277c4.282-0.37,5.93-2.679,5.93-7.252
		c0-6.56-3.2-8.315-12.237-8.315c-6.212,0-9.836,0.046-14.024,0.37v31.872c4.612,0.323,8.565,0.369,15.577,0.369
		c8.142,0,11.766-1.755,11.766-8.314C90.362,32.9,88.527,29.944,83.35,29.528 M79.538,23.43c0,2.495-0.565,3.049-2.917,3.049h-3.625
		v-6.005h3.53C78.973,20.474,79.538,20.983,79.538,23.43 M76.761,39.505h-3.765v-7.159h3.718c2.87,0,3.483,0.646,3.483,3.603
		C80.197,38.858,79.584,39.505,76.761,39.505 M108.246,13.407c-11.107,0-15.107,3.464-15.107,16.583
		c0,13.118,4,16.583,15.107,16.583c11.153,0,15.153-3.465,15.153-16.583C123.399,16.871,119.399,13.407,108.246,13.407
		 M108.246,20.844c3.482,0,4.376,1.755,4.376,9.146s-0.894,9.146-4.376,9.146c-3.483,0-4.377-1.755-4.377-9.146
		S104.763,20.844,108.246,20.844 M137.47,14.054h-10.212v24.804c0,4.297,3.012,7.253,7.718,7.253c5.318,0,11.013,0,15.86-0.647
		l-0.47-7.483h-10.918c-1.224,0-1.978-0.693-1.978-1.663V14.054z M175.684,14.054h-28.378v7.483h9.083v24.389h10.213V21.537h9.082
		V14.054z"/>
</g>
</svg>
